<?xml version="1.0" standalone="no"?>
<!DOCTYPE svg PUBLIC "-//W3C//DTD SVG 20010904//EN"
 "http://www.w3.org/TR/2001/REC-SVG-20010904/DTD/svg10.dtd">
<svg version="1.0" xmlns="http://www.w3.org/2000/svg"
 width="1024.000000pt" height="1024.000000pt" viewBox="0 0 1024.000000 1024.000000"
 preserveAspectRatio="xMidYMid meet">

<g transform="translate(0.000000,1024.000000) scale(0.100000,-0.100000)"
fill="#000000" stroke="none">
<path d="M5139 8975 c-214 -43 -426 -193 -586 -416 -133 -185 -272 -476 -403
-849 l-87 -245 -59 -7 c-92 -12 -333 -57 -501 -94 -405 -88 -656 -198 -813
-354 -91 -90 -114 -140 -114 -255 -1 -111 19 -162 96 -238 47 -47 69 -60 183
-104 274 -108 690 -221 985 -268 236 -38 213 -30 205 -73 -12 -68 -65 -276
-106 -410 -58 -192 -114 -339 -242 -629 -181 -409 -230 -558 -288 -873 -47
-258 -79 -373 -146 -525 -39 -89 -117 -222 -160 -274 l-28 -33 -88 65 c-54 41
-94 64 -103 60 -12 -4 -3 -19 38 -60 65 -68 44 -65 -80 10 -96 57 -199 94
-216 76 -8 -8 3 -23 39 -56 56 -51 152 -116 172 -116 7 0 13 -4 13 -9 0 -4 -5
-8 -11 -8 -16 0 -156 99 -213 151 -47 43 -139 96 -193 113 -36 11 -28 -15 18
-59 22 -22 54 -57 70 -77 l30 -37 -43 13 c-24 8 -79 30 -123 49 -139 61 -200
61 -82 0 34 -18 75 -43 90 -55 l28 -23 -101 -1 c-120 -1 -137 -10 -95 -54 l28
-30 -34 11 c-60 18 -231 -14 -215 -40 3 -5 21 -12 40 -15 64 -12 136 -37 136
-46 0 -6 -53 -10 -127 -11 -71 0 -137 -4 -148 -8 -18 -7 -14 -12 28 -37 27
-16 62 -39 78 -50 l29 -21 -70 5 c-38 2 -70 2 -70 -1 0 -3 30 -15 67 -27 38
-13 71 -25 75 -29 4 -3 -19 -7 -51 -8 -31 -1 -68 -6 -80 -11 -21 -7 -18 -11
39 -51 33 -24 76 -47 95 -52 58 -16 40 -29 -41 -29 -41 0 -73 -4 -70 -9 9 -15
145 -75 338 -152 101 -39 189 -76 196 -82 29 -23 -3 -17 -116 22 -125 43 -242
65 -211 39 9 -7 83 -35 165 -61 157 -51 219 -75 212 -82 -2 -2 -37 5 -78 16
-86 22 -93 23 -88 7 2 -6 35 -20 72 -30 38 -10 92 -29 121 -43 29 -13 108 -44
176 -68 68 -25 222 -86 341 -136 190 -79 457 -181 473 -181 4 0 97 -36 208
-79 384 -150 487 -173 661 -152 55 7 106 13 111 14 23 1 371 -193 518 -289
137 -90 164 -104 200 -104 52 0 151 46 191 88 26 28 28 36 24 84 -3 29 -9 60
-12 69 -7 15 26 17 381 22 406 5 508 13 808 62 174 29 453 98 606 149 305 102
564 265 668 422 70 105 84 159 79 305 -4 111 -6 121 -41 191 -42 85 -134 193
-259 303 -47 41 -94 88 -103 103 l-18 27 27 -24 c45 -42 29 -17 -48 75 -41 48
-94 125 -118 170 -23 45 -46 81 -49 78 -3 -2 -16 19 -29 45 l-22 49 36 59 c20
32 36 65 36 73 1 8 17 -32 36 -89 73 -221 187 -394 362 -551 71 -63 149 -116
158 -107 3 3 -51 62 -120 131 -68 70 -152 163 -186 208 -72 95 -149 244 -190
366 l-29 87 24 71 c14 39 32 113 41 165 57 331 -121 636 -396 677 -49 8 -39
-6 -200 267 -184 313 -404 835 -453 1080 -17 84 -27 76 133 100 323 47 776
176 1008 287 175 83 250 177 239 298 -19 213 -308 405 -801 530 -83 21 -236
56 -339 78 -104 22 -190 42 -191 44 -21 33 -80 198 -100 280 -93 379 -302 799
-497 999 -93 94 -241 178 -370 209 -99 23 -275 26 -380 5z m-21 -196 c-195
-66 -371 -236 -539 -519 -29 -49 -55 -87 -57 -85 -3 2 21 49 52 104 156 275
364 485 502 507 21 3 41 8 43 10 2 2 16 4 30 3 18 0 9 -6 -31 -20z m-96 -990
c74 -16 184 -52 197 -65 2 -2 -21 -1 -50 1 -62 6 -52 1 81 -40 l86 -25 59 20
c129 45 457 74 576 51 181 -34 354 -105 411 -168 38 -43 63 -83 52 -83 -12 0
-109 35 -114 41 -29 34 -256 157 -267 145 -3 -2 5 -7 16 -11 12 -3 21 -15 21
-25 0 -16 -4 -18 -23 -11 -15 6 -29 5 -38 -1 -11 -8 -10 -8 5 -4 17 6 18 5 4
-16 -8 -12 -21 -24 -29 -26 -8 -3 -6 2 4 10 18 13 17 14 -2 14 -11 0 -18 -4
-15 -7 2 -4 -1 -11 -8 -15 -8 -5 -6 -10 8 -16 11 -5 -11 -6 -57 -3 -496 32
-1234 2 -1743 -71 l-49 -7 19 32 c24 41 182 170 249 204 103 51 238 88 365
100 56 5 148 -4 242 -24z m1066 -246 c-10 -2 -26 -2 -35 0 -10 3 -2 5 17 5 19
0 27 -2 18 -5z m-1645 -230 c-7 -2 -21 -2 -30 0 -10 3 -4 5 12 5 17 0 24 -2
18 -5z m-76 -9 c-3 -3 -12 -4 -19 -1 -8 3 -5 6 6 6 11 1 17 -2 13 -5z m-70
-10 c-3 -3 -12 -4 -19 -1 -8 3 -5 6 6 6 11 1 17 -2 13 -5z m-997 -169 c-7 -8
-9 -15 -4 -15 5 -1 -2 -9 -15 -20 l-23 -20 33 5 c19 3 7 -3 -26 -14 -33 -10
-61 -17 -63 -16 -9 7 26 46 62 69 46 30 54 32 36 11z m-480 -170 c-21 -23 -20
-30 3 -26 5 1 6 -3 3 -8 -4 -5 -15 -8 -26 -6 -11 2 -21 0 -21 -6 -1 -5 -2 -15
-3 -21 0 -7 -7 -13 -15 -13 -8 0 -16 -6 -19 -14 -3 -9 0 -11 9 -7 8 4 5 -1 -6
-11 -11 -10 -21 -25 -23 -33 -5 -20 -22 -37 -22 -22 0 31 33 87 81 137 29 30
54 55 57 55 3 0 -5 -11 -18 -25z m60 11 c0 -2 -8 -10 -17 -17 -16 -13 -17 -12
-4 4 13 16 21 21 21 13z m4817 -129 c4 -25 2 -37 -6 -37 -7 0 -9 5 -6 10 3 6
2 10 -3 10 -4 0 -16 16 -25 36 -10 19 -13 33 -7 29 5 -3 10 0 10 7 0 27 31
-19 37 -55z m-1799 -166 c7 -21 12 -51 12 -66 0 -46 98 -665 125 -790 49 -227
122 -483 155 -545 10 -19 10 -21 -7 -16 -86 27 -496 50 -735 42 -532 -18 -964
-136 -1052 -289 -35 -59 -40 -102 -26 -219 l11 -103 -35 -105 c-57 -173 -94
-396 -97 -599 -1 -52 -4 -67 -8 -46 -16 70 -31 92 -56 87 -16 -3 -25 -11 -25
-23 0 -11 -5 -19 -11 -19 -7 0 -17 -8 -24 -17 -34 -47 -31 291 5 520 39 250
87 396 241 726 65 140 117 256 115 258 -2 2 -35 -44 -74 -102 -144 -215 -272
-507 -336 -760 -42 -167 -65 -465 -49 -622 5 -46 6 -83 2 -83 -4 0 -6 -15 -5
-32 1 -23 -3 -33 -14 -33 -25 0 -23 -51 3 -128 30 -85 51 -176 44 -183 -3 -3
-35 84 -71 194 -62 187 -106 382 -106 467 0 19 -4 37 -10 40 -16 10 -12 -246
5 -355 8 -52 29 -147 46 -210 37 -135 47 -230 24 -230 -9 0 -12 6 -8 17 4 10
2 14 -4 10 -6 -4 -14 1 -17 10 -6 14 -9 15 -15 4 -10 -15 -12 -12 -64 89 -15
30 -26 48 -24 40 2 -8 7 -26 11 -40 l7 -25 -14 25 c-22 37 -31 74 -18 66 13
-9 6 11 -26 72 -53 99 -91 294 -100 515 -3 81 -10 147 -14 147 -4 0 -12 -24
-18 -52 -42 -223 -8 -488 94 -725 45 -106 54 -143 34 -143 -7 0 -9 -18 -7 -47
5 -81 -21 -61 -83 64 -107 213 -134 333 -134 593 0 181 2 203 29 305 51 199
101 335 283 765 99 234 188 450 198 480 10 30 21 60 25 65 4 6 10 24 13 40 3
17 15 73 26 125 11 52 25 142 31 200 6 58 20 157 31 220 11 63 24 165 29 225
l9 110 -3 -92 c-1 -51 1 -87 6 -80 6 9 8 9 8 0 0 -7 7 -13 16 -13 9 0 13 5 9
13 -4 6 0 3 9 -7 8 -10 13 -23 10 -28 -3 -5 23 5 58 23 119 60 337 120 553
151 153 22 646 10 672 -16 2 -2 -23 -52 -57 -112 -60 -109 -75 -166 -51 -203
13 -21 26 -7 51 56 31 78 92 183 156 268 85 114 114 130 114 62 l0 -32 21 35
c22 37 78 100 89 100 4 0 12 -17 18 -39z m291 -45 c1 -55 -5 -42 -12 24 -3 34
-2 47 3 35 5 -11 9 -38 9 -59z m1414 53 c-21 -21 -337 -150 -476 -194 -210
-66 -517 -138 -642 -149 -81 -7 -35 6 115 34 295 55 606 148 865 259 152 65
154 66 138 50z m-3363 -33 c0 -3 -4 -8 -10 -11 -5 -3 -10 -1 -10 4 0 6 5 11
10 11 6 0 10 -2 10 -4z m2024 -48 c3 -24 8 -83 11 -131 5 -78 24 -217 41 -317
4 -19 4 -33 1 -30 -3 3 -19 82 -36 176 -35 202 -49 344 -33 344 6 0 13 -19 16
-42z m-67 -80 c-3 -8 -6 -5 -6 6 -1 11 2 17 5 13 3 -3 4 -12 1 -19z m-3010
-78 c301 -99 439 -133 781 -195 50 -10 92 -20 92 -25 0 -7 -270 42 -440 81
-169 38 -690 204 -709 226 -3 3 2 3 11 0 9 -3 129 -42 265 -87z m2885 -284 c7
5 9 -2 4 -20 -3 -14 -3 -26 2 -26 5 0 21 -45 37 -100 46 -167 60 -146 64 100
2 119 9 117 41 -9 20 -80 37 -111 59 -111 5 0 26 -53 46 -117 66 -218 114
-347 194 -525 44 -98 76 -178 71 -178 -5 0 -21 5 -37 11 -22 8 -260 59 -278
59 -9 0 -97 291 -140 465 -46 187 -106 481 -104 512 0 10 7 -1 16 -25 8 -24
19 -39 25 -36z m255 -68 c-3 -8 -6 -5 -6 6 -1 11 2 17 5 13 3 -3 4 -12 1 -19z
m10 -40 c-3 -8 -6 -5 -6 6 -1 11 2 17 5 13 3 -3 4 -12 1 -19z m10 -40 c-3 -8
-6 -5 -6 6 -1 11 2 17 5 13 3 -3 4 -12 1 -19z m10 -40 c-3 -8 -6 -5 -6 6 -1
11 2 17 5 13 3 -3 4 -12 1 -19z m68 -176 c26 -68 93 -229 150 -357 107 -242
120 -275 111 -275 -25 0 -316 692 -316 752 0 21 7 4 55 -120z m-494 -572 c173
-14 351 -43 516 -85 145 -37 217 -67 286 -120 64 -49 74 -88 53 -204 -9 -47
-20 -142 -26 -211 -15 -184 -56 -505 -84 -665 -74 -415 -289 -953 -428 -1070
-31 -26 -36 -27 -108 -22 -84 7 -162 20 -203 36 l-27 11 47 42 c90 83 103 100
137 177 55 124 170 493 210 671 38 169 45 235 53 448 l6 194 26 10 c14 5 72
33 129 61 56 28 104 48 107 45 5 -5 -20 -298 -35 -403 -35 -242 -111 -514
-209 -747 -80 -192 -86 -203 -158 -325 -60 -101 -101 -143 -139 -143 -22 0
-25 -4 -22 -27 3 -26 7 -28 55 -31 29 -2 61 2 72 7 20 11 106 151 165 268 180
361 296 853 327 1386 7 109 10 199 8 202 -2 2 -60 -10 -129 -26 -218 -50 -427
-82 -642 -95 l-106 -7 -51 -91 c-62 -112 -103 -204 -166 -366 -193 -501 -219
-557 -335 -720 -90 -127 -199 -237 -285 -288 l-70 -42 -18 22 c-34 41 -101
162 -148 269 -158 358 -275 874 -270 1194 1 73 3 85 11 80 5 -3 6 4 3 15 -3
11 -9 23 -14 26 -4 2 1 20 11 39 11 19 15 35 10 35 -6 0 -10 4 -10 10 0 5 -11
20 -25 34 -29 29 -34 90 -10 135 59 116 336 220 685 260 52 6 109 13 125 15
71 8 553 5 676 -4z m970 -382 l19 -38 -30 0 c-30 0 -30 1 -30 53 0 56 3 55 41
-15z m293 -137 c111 -55 192 -165 226 -311 18 -75 16 -229 -5 -320 -17 -75
-93 -251 -114 -264 -8 -5 -8 0 -2 17 6 14 7 28 4 31 -3 3 -1 11 5 18 5 7 17
38 26 68 53 186 49 468 -6 520 -22 20 -48 17 -48 -7 0 -8 -22 8 -49 36 -59 60
-132 87 -212 76 l-49 -7 0 50 c0 27 -3 64 -6 81 -6 28 -10 31 -48 32 l-41 2
40 8 c22 4 79 6 128 4 74 -2 97 -7 151 -34z m-74 -300 c53 -38 68 -245 26
-362 -23 -66 -79 -161 -114 -192 -17 -16 -18 -14 -20 21 -3 57 -13 93 -23 86
-5 -3 -9 -20 -9 -38 0 -18 -5 -58 -12 -90 -9 -46 -18 -62 -43 -82 -18 -13 -34
-24 -37 -24 -2 0 2 35 10 78 14 78 11 423 -4 484 -5 23 1 34 44 77 71 71 124
83 182 42z m-280 -286 c0 -71 -5 -161 -10 -200 -14 -92 -41 -189 -50 -175 -4
6 -13 -9 -20 -35 -12 -44 -33 -65 -63 -65 -13 0 -13 6 -1 48 15 48 68 359 80
469 4 38 11 61 18 60 6 -1 11 5 11 13 0 8 4 21 9 29 18 28 26 -15 26 -144z
m201 -378 c-12 -31 -83 -80 -136 -94 -22 -6 -49 -14 -60 -18 -11 -3 5 7 35 25
31 17 81 50 110 74 30 24 56 42 58 41 1 -1 -2 -14 -7 -28z m-3636 -192 c-4
-22 -8 -54 -9 -72 l-3 -32 40 29 c21 15 55 47 74 70 36 41 52 41 53 -1 0 -18
-182 -234 -205 -243 -20 -7 -19 -3 6 46 29 56 12 71 -35 31 -30 -27 -39 -30
-83 -26 -26 3 -52 5 -56 6 -4 1 20 34 53 72 38 43 77 104 103 157 l42 88 13
-43 c8 -24 10 -59 7 -82z m1260 -122 c84 -216 197 -397 346 -557 l77 -82 -29
-32 c-33 -37 -35 -53 -13 -91 36 -61 125 -97 315 -127 165 -27 636 -27 758 -1
137 30 221 85 221 147 0 34 -20 79 -44 99 -14 12 -12 18 18 55 37 45 109 163
155 255 30 58 31 58 82 65 72 10 118 36 202 115 40 37 107 91 150 121 78 53
78 53 120 41 65 -20 233 -94 325 -145 274 -152 457 -312 522 -457 21 -46 25
-69 25 -154 0 -90 -3 -106 -29 -159 -137 -280 -717 -522 -1471 -615 -417 -52
-895 -54 -1089 -6 -57 15 -339 155 -487 242 -85 51 -88 55 -108 191 -23 154
-124 304 -223 334 -38 11 -44 10 -112 -25 -140 -72 -477 -344 -503 -405 -10
-24 -12 -50 -8 -84 6 -41 4 -51 -11 -63 -27 -19 -34 -3 -34 78 0 98 14 123
116 204 49 39 119 95 155 125 36 29 107 82 157 118 70 49 89 67 80 77 -6 7
-23 13 -39 13 -21 0 -51 18 -107 64 -111 93 -311 250 -430 338 l-102 76 87 49
c138 76 273 138 395 183 137 51 471 149 479 141 3 -3 27 -61 54 -128z m-807
62 c-3 -3 -9 2 -12 12 -6 14 -5 15 5 6 7 -7 10 -15 7 -18z m-764 -227 c33 -23
75 -52 93 -64 18 -12 45 -35 61 -51 17 -16 64 -47 105 -68 42 -21 86 -47 99
-57 23 -18 23 -18 -12 -6 -40 13 -375 235 -404 267 -29 32 -10 25 58 -21z
m316 -110 c0 -5 -11 -1 -25 8 -14 9 -25 18 -25 20 0 2 11 -2 25 -8 14 -6 25
-15 25 -20z m-448 -41 c26 -18 48 -36 48 -40 0 -6 -113 64 -130 81 -14 14 41
-13 82 -41z m-80 -122 c32 -9 61 -21 64 -27 5 -7 0 -9 -14 -6 -13 4 -20 2 -16
-4 3 -5 -23 5 -58 23 -69 34 -84 45 -53 36 11 -3 46 -13 77 -22z m193 -212
c118 -58 166 -90 75 -50 -85 37 -238 118 -210 111 14 -4 75 -31 135 -61z m251
-26 c49 -25 98 -52 109 -61 11 -8 -40 14 -112 50 -73 35 -133 67 -133 69 0 7
42 -11 136 -58z m-46 -67 c-19 -13 -30 -13 -30 0 0 6 10 10 23 10 18 0 19 -2
7 -10z m85 -58 c-3 -3 -11 0 -18 7 -9 10 -8 11 6 5 10 -3 15 -9 12 -12z m1128
-23 c81 -41 150 -168 163 -295 9 -90 -4 -77 -17 17 -12 80 -25 114 -59 144
l-23 20 12 -22 c6 -12 16 -25 21 -28 6 -3 10 -12 10 -18 0 -7 -5 -4 -11 6 -5
9 -15 17 -20 17 -6 0 -7 -4 -4 -10 3 -5 0 -10 -9 -10 -8 0 -16 6 -19 13 -9 24
-19 -64 -15 -128 2 -36 1 -65 -2 -65 -10 0 -26 15 -41 37 l-16 23 -11 -26 c-9
-19 -9 -24 0 -18 8 5 9 2 5 -9 -3 -10 -2 -17 3 -17 6 0 9 -3 8 -7 -5 -17 23
-53 35 -46 6 4 2 -5 -10 -21 -12 -15 -29 -49 -38 -77 -9 -27 -20 -49 -24 -49
-22 0 -105 31 -121 45 -9 8 -28 18 -41 21 -67 13 -273 43 -277 39 -3 -2 -13 0
-23 6 -16 8 -19 6 -19 -14 0 -32 38 -86 79 -114 57 -39 157 -64 281 -72 l115
-7 -68 -8 c-79 -10 -192 5 -277 36 -108 40 -178 149 -151 238 13 45 108 134
281 265 181 137 231 161 283 134z m179 -415 c2 -13 -153 -184 -167 -184 -9 0
-5 48 6 77 28 74 151 156 161 107z m90 -64 c5 0 -4 -16 -21 -35 -34 -39 -55
-77 -65 -116 -7 -31 -32 -44 -52 -28 -12 10 -11 17 6 48 l21 36 -35 -40 c-25
-29 -37 -37 -46 -29 -27 27 129 183 168 169 8 -3 18 -5 24 -5z m-352 -118
c-16 -3 -80 23 -80 32 0 1 22 -5 49 -13 30 -10 42 -17 31 -19z m18 -39 c-10
-2 -26 -2 -35 0 -10 3 -2 5 17 5 19 0 27 -2 18 -5z"/>
<path d="M6010 7680 c8 -5 20 -10 25 -10 6 0 3 5 -5 10 -8 5 -19 10 -25 10 -5
0 -3 -5 5 -10z"/>
<path d="M4381 6372 c-19 -9 -41 -27 -48 -38 -14 -21 -13 -22 31 -17 40 5 48
2 76 -25 26 -26 30 -38 30 -84 0 -46 -4 -58 -28 -81 -33 -31 -88 -36 -127 -11
l-23 15 -8 -57 c-9 -78 1 -214 21 -260 50 -120 143 -170 239 -130 41 17 90 75
105 125 15 52 13 269 -3 362 -23 128 -66 190 -146 208 -62 15 -80 14 -119 -7z
m120 -422 c39 -22 16 -104 -31 -110 -50 -7 -80 16 -80 60 0 16 7 36 16 44 18
18 66 21 95 6z"/>
<path d="M5592 6364 c-31 -22 -27 -38 13 -57 41 -19 55 -49 55 -113 0 -63 -40
-104 -101 -104 l-42 0 6 -113 c9 -146 27 -207 77 -257 48 -48 103 -65 159 -50
55 15 86 43 118 108 25 52 28 66 27 157 -3 224 -72 395 -177 434 -41 16 -109
13 -135 -5z m150 -427 c33 -50 8 -107 -47 -107 -18 0 -41 7 -49 16 -17 16 -21
61 -8 80 22 33 86 39 104 11z"/>
<path d="M4772 5728 c-16 -16 -15 -73 2 -107 22 -42 82 -90 156 -125 62 -30
71 -31 190 -31 119 0 128 1 190 31 36 17 79 43 97 58 39 33 76 106 71 142 -5
48 -26 50 -130 16 -161 -53 -302 -52 -478 4 -88 28 -83 27 -98 12z m248 -119
c105 -16 220 -7 308 24 39 14 72 22 72 17 0 -20 -110 -106 -158 -123 -74 -27
-208 -20 -276 13 -51 25 -136 98 -136 117 0 6 25 0 58 -13 32 -13 92 -28 132
-35z"/>
<path d="M3922 4115 c0 -16 3 -50 7 -75 8 -42 9 -43 9 -10 1 19 -3 53 -7 75
-8 35 -9 36 -9 10z"/>
<path d="M6311 5665 c1 -19 18 -51 18 -35 0 8 -4 22 -9 30 -5 8 -9 11 -9 5z"/>
<path d="M6340 5612 c0 -9 9 -41 19 -69 13 -37 16 -53 7 -57 -8 -3 -8 -5 1 -5
6 -1 9 -10 5 -23 -3 -14 -1 -19 6 -14 7 4 14 -3 18 -19 3 -13 10 -23 14 -20 4
3 11 -2 14 -11 5 -13 2 -15 -14 -11 -14 3 -20 1 -17 -6 3 -7 11 -10 18 -8 8 2
22 4 32 5 21 0 21 5 2 32 -8 12 -11 25 -7 29 4 3 0 5 -8 3 -9 -2 -15 5 -16 20
-1 13 -6 28 -13 35 -6 6 -11 21 -11 34 0 13 -5 23 -10 23 -6 0 -9 12 -8 28 2
19 -1 26 -11 24 -12 -3 -12 0 -1 12 10 13 10 16 -4 16 -9 0 -16 -8 -16 -18z"/>
<path d="M6200 5105 c5 -6 7 -14 4 -18 -3 -3 -3 -14 0 -25 8 -25 53 -37 74
-20 12 10 14 10 8 0 -5 -8 1 -15 16 -21 23 -8 47 0 76 27 7 6 19 12 25 12 7 0
6 -4 -3 -10 -9 -6 -10 -10 -3 -10 6 0 14 4 17 8 3 5 19 7 36 4 64 -9 26 7 -62
27 -141 32 -200 40 -188 26z"/>
<path d="M5425 4943 c-331 -20 -565 -64 -661 -124 -25 -17 -44 -32 -42 -34 2
-3 40 -14 84 -24 370 -92 1229 -94 1627 -4 42 9 67 19 64 26 -6 20 -128 76
-208 96 -204 52 -594 81 -864 64z m188 -70 c-40 -2 -106 -2 -145 0 -40 1 -8 3
72 3 80 0 112 -2 73 -3z m-270 -10 c-18 -2 -48 -2 -65 0 -18 2 -4 4 32 4 36 0
50 -2 33 -4z"/>
<path d="M3303 3448 c-43 -64 -45 -68 -35 -68 5 0 14 10 20 23 6 12 21 37 32
55 12 17 20 32 17 32 -3 0 -18 -19 -34 -42z"/>
<path d="M6720 2901 c0 -12 45 -51 58 -51 18 0 14 15 -8 35 -22 20 -50 29 -50
16z"/>
<path d="M4421 2325 c1 -19 18 -51 18 -35 0 8 -4 22 -9 30 -5 8 -9 11 -9 5z"/>
<path d="M4492 2300 c0 -14 2 -19 5 -12 2 6 2 18 0 25 -3 6 -5 1 -5 -13z"/>
<path d="M7411 5399 c-17 -44 -31 -93 -31 -108 0 -34 19 -91 30 -91 9 0 175
144 185 160 4 7 -3 22 -16 36 -26 28 -111 84 -127 84 -5 0 -24 -36 -41 -81z"/>
<path d="M3057 4226 c-3 -7 -9 -50 -12 -95 -9 -93 -8 -94 71 -60 86 36 86 41
17 127 -34 42 -66 54 -76 28z"/>
<path d="M7726 3681 c-14 -22 8 -63 57 -106 61 -53 72 -48 82 36 8 64 9 63
-77 74 -36 5 -58 3 -62 -4z"/>
<path d="M3207 2023 c-22 -21 22 -49 53 -33 32 17 25 40 -13 40 -19 0 -37 -3
-40 -7z"/>
<path d="M7998 1785 c-3 -3 -3 -17 0 -30 5 -31 25 -32 89 -4 41 18 45 22 28
29 -22 10 -109 13 -117 5z"/>
<path d="M7040 1634 c-51 -22 -53 -23 -23 -24 20 0 42 9 60 25 33 29 33 29
-37 -1z"/>
<path d="M4200 1536 c0 -14 116 -63 126 -53 7 7 -95 67 -113 67 -7 0 -13 -6
-13 -14z"/>
<path d="M8135 1222 c-58 -27 -65 -40 -58 -100 3 -29 9 -52 13 -52 17 0 131
133 128 148 -5 24 -36 25 -83 4z"/>
</g>
</svg>
